%TF.GenerationSoftware,KiCad,Pcbnew,(5.1.8-0-10_14)*%
%TF.CreationDate,2021-10-17T14:40:20-04:00*%
%TF.ProjectId,WingedA,57696e67-6564-4412-9e6b-696361645f70,rev?*%
%TF.SameCoordinates,Original*%
%TF.FileFunction,Copper,L1,Top*%
%TF.FilePolarity,Positive*%
%FSLAX46Y46*%
G04 Gerber Fmt 4.6, Leading zero omitted, Abs format (unit mm)*
G04 Created by KiCad (PCBNEW (5.1.8-0-10_14)) date 2021-10-17 14:40:20*
%MOMM*%
%LPD*%
G01*
G04 APERTURE LIST*
%TA.AperFunction,ComponentPad*%
%ADD10C,2.800000*%
%TD*%
%TA.AperFunction,ComponentPad*%
%ADD11C,1.800000*%
%TD*%
%TA.AperFunction,ComponentPad*%
%ADD12R,1.800000X1.800000*%
%TD*%
%TA.AperFunction,ComponentPad*%
%ADD13O,1.727200X2.032000*%
%TD*%
%TA.AperFunction,ComponentPad*%
%ADD14R,1.727200X2.032000*%
%TD*%
%TA.AperFunction,Conductor*%
%ADD15C,0.500000*%
%TD*%
%TA.AperFunction,Conductor*%
%ADD16C,0.254000*%
%TD*%
%TA.AperFunction,Conductor*%
%ADD17C,0.100000*%
%TD*%
G04 APERTURE END LIST*
D10*
%TO.P,BT1,1*%
%TO.N,VCC*%
X104427100Y-73139300D03*
X126027100Y-73139300D03*
%TD*%
D11*
%TO.P,D1,2*%
%TO.N,GND*%
X112191800Y-51181000D03*
D12*
%TO.P,D1,1*%
%TO.N,VCC*%
X109651800Y-51181000D03*
%TD*%
%TO.P,D2,1*%
%TO.N,VCC*%
X118198900Y-50863500D03*
D11*
%TO.P,D2,2*%
%TO.N,GND*%
X120738900Y-50863500D03*
%TD*%
D13*
%TO.P,SW1,3*%
%TO.N,N/C*%
X140119100Y-53441600D03*
%TO.P,SW1,2*%
%TO.N,Net-(BT1-Pad2)*%
X137579100Y-53441600D03*
D14*
%TO.P,SW1,1*%
%TO.N,GND*%
X135039100Y-53441600D03*
%TD*%
D15*
%TO.N,VCC*%
X104427100Y-67251500D02*
X104427100Y-73139300D01*
X109651800Y-62026800D02*
X104427100Y-67251500D01*
X118198900Y-50863500D02*
X118198900Y-60769500D01*
X126027100Y-68597700D02*
X126027100Y-73139300D01*
X118198900Y-60769500D02*
X126027100Y-68597700D01*
X109651800Y-51181000D02*
X109651800Y-62026800D01*
X114922300Y-54140100D02*
X118198900Y-50863500D01*
X112610900Y-54140100D02*
X114922300Y-54140100D01*
X109651800Y-51181000D02*
X112610900Y-54140100D01*
%TD*%
D16*
%TO.N,VCC*%
X87918582Y-46084397D02*
X94299898Y-48219779D01*
X101608323Y-53413266D01*
X101630861Y-53433175D01*
X101661178Y-53450825D01*
X101663217Y-53452274D01*
X101689197Y-53467137D01*
X101743216Y-53498586D01*
X101745598Y-53499404D01*
X101747788Y-53500657D01*
X101807077Y-53520521D01*
X101866173Y-53540819D01*
X101868672Y-53541157D01*
X101871062Y-53541958D01*
X101933034Y-53549868D01*
X101995007Y-53558255D01*
X101997525Y-53558099D01*
X102000024Y-53558418D01*
X102062266Y-53554091D01*
X102092253Y-53552234D01*
X102094737Y-53551833D01*
X102129719Y-53549401D01*
X102158724Y-53541506D01*
X105551770Y-52993895D01*
X105553919Y-52993598D01*
X105554142Y-52993512D01*
X106096943Y-52905908D01*
X106120865Y-52905052D01*
X106160936Y-52895580D01*
X106169463Y-52894204D01*
X106192535Y-52888111D01*
X106247388Y-52875145D01*
X106255277Y-52871541D01*
X106263666Y-52869326D01*
X106314353Y-52844557D01*
X106365643Y-52821129D01*
X106372677Y-52816056D01*
X106380474Y-52812246D01*
X106425366Y-52778056D01*
X106471089Y-52745081D01*
X106476996Y-52738736D01*
X106483902Y-52733476D01*
X106521266Y-52691179D01*
X106537477Y-52673765D01*
X106542697Y-52666919D01*
X106569975Y-52636040D01*
X106582026Y-52615340D01*
X106989460Y-52081000D01*
X108113728Y-52081000D01*
X108125988Y-52205482D01*
X108162298Y-52325180D01*
X108221263Y-52435494D01*
X108300615Y-52532185D01*
X108397306Y-52611537D01*
X108507620Y-52670502D01*
X108627318Y-52706812D01*
X108751800Y-52719072D01*
X109366050Y-52716000D01*
X109524800Y-52557250D01*
X109524800Y-51308000D01*
X108275550Y-51308000D01*
X108116800Y-51466750D01*
X108113728Y-52081000D01*
X106989460Y-52081000D01*
X107317016Y-51651419D01*
X107343915Y-51621090D01*
X107372696Y-51571874D01*
X107402690Y-51523311D01*
X107416860Y-51485311D01*
X107970628Y-50281000D01*
X108113728Y-50281000D01*
X108116800Y-50895250D01*
X108275550Y-51054000D01*
X109524800Y-51054000D01*
X109524800Y-49804750D01*
X109778800Y-49804750D01*
X109778800Y-51054000D01*
X109798800Y-51054000D01*
X109798800Y-51308000D01*
X109778800Y-51308000D01*
X109778800Y-52557250D01*
X109937550Y-52716000D01*
X110551800Y-52719072D01*
X110676282Y-52706812D01*
X110795980Y-52670502D01*
X110906294Y-52611537D01*
X111002985Y-52532185D01*
X111082337Y-52435494D01*
X111141302Y-52325180D01*
X111146856Y-52306873D01*
X111213295Y-52373312D01*
X111464705Y-52541299D01*
X111744057Y-52657011D01*
X112040616Y-52716000D01*
X112342984Y-52716000D01*
X112639543Y-52657011D01*
X112918895Y-52541299D01*
X113170305Y-52373312D01*
X113384112Y-52159505D01*
X113552099Y-51908095D01*
X113611992Y-51763500D01*
X116660828Y-51763500D01*
X116673088Y-51887982D01*
X116709398Y-52007680D01*
X116768363Y-52117994D01*
X116847715Y-52214685D01*
X116944406Y-52294037D01*
X117054720Y-52353002D01*
X117174418Y-52389312D01*
X117298900Y-52401572D01*
X117913150Y-52398500D01*
X118071900Y-52239750D01*
X118071900Y-50990500D01*
X116822650Y-50990500D01*
X116663900Y-51149250D01*
X116660828Y-51763500D01*
X113611992Y-51763500D01*
X113667811Y-51628743D01*
X113726800Y-51332184D01*
X113726800Y-51029816D01*
X113667811Y-50733257D01*
X113552099Y-50453905D01*
X113384112Y-50202495D01*
X113170305Y-49988688D01*
X113132609Y-49963500D01*
X116660828Y-49963500D01*
X116663900Y-50577750D01*
X116822650Y-50736500D01*
X118071900Y-50736500D01*
X118071900Y-49487250D01*
X118325900Y-49487250D01*
X118325900Y-50736500D01*
X118345900Y-50736500D01*
X118345900Y-50990500D01*
X118325900Y-50990500D01*
X118325900Y-52239750D01*
X118484650Y-52398500D01*
X119098900Y-52401572D01*
X119223382Y-52389312D01*
X119343080Y-52353002D01*
X119453394Y-52294037D01*
X119550085Y-52214685D01*
X119629437Y-52117994D01*
X119688402Y-52007680D01*
X119693956Y-51989373D01*
X119760395Y-52055812D01*
X120011805Y-52223799D01*
X120291157Y-52339511D01*
X120587716Y-52398500D01*
X120890084Y-52398500D01*
X121186643Y-52339511D01*
X121465995Y-52223799D01*
X121717405Y-52055812D01*
X121931212Y-51842005D01*
X122099199Y-51590595D01*
X122214911Y-51311243D01*
X122273900Y-51014684D01*
X122273900Y-50712316D01*
X122214911Y-50415757D01*
X122099199Y-50136405D01*
X121931212Y-49884995D01*
X121717405Y-49671188D01*
X121465995Y-49503201D01*
X121186643Y-49387489D01*
X120890084Y-49328500D01*
X120587716Y-49328500D01*
X120291157Y-49387489D01*
X120011805Y-49503201D01*
X119760395Y-49671188D01*
X119693956Y-49737627D01*
X119688402Y-49719320D01*
X119629437Y-49609006D01*
X119550085Y-49512315D01*
X119453394Y-49432963D01*
X119343080Y-49373998D01*
X119223382Y-49337688D01*
X119098900Y-49325428D01*
X118484650Y-49328500D01*
X118325900Y-49487250D01*
X118071900Y-49487250D01*
X117913150Y-49328500D01*
X117298900Y-49325428D01*
X117174418Y-49337688D01*
X117054720Y-49373998D01*
X116944406Y-49432963D01*
X116847715Y-49512315D01*
X116768363Y-49609006D01*
X116709398Y-49719320D01*
X116673088Y-49839018D01*
X116660828Y-49963500D01*
X113132609Y-49963500D01*
X112918895Y-49820701D01*
X112639543Y-49704989D01*
X112342984Y-49646000D01*
X112040616Y-49646000D01*
X111744057Y-49704989D01*
X111464705Y-49820701D01*
X111213295Y-49988688D01*
X111146856Y-50055127D01*
X111141302Y-50036820D01*
X111082337Y-49926506D01*
X111002985Y-49829815D01*
X110906294Y-49750463D01*
X110795980Y-49691498D01*
X110676282Y-49655188D01*
X110551800Y-49642928D01*
X109937550Y-49646000D01*
X109778800Y-49804750D01*
X109524800Y-49804750D01*
X109366050Y-49646000D01*
X108751800Y-49642928D01*
X108627318Y-49655188D01*
X108507620Y-49691498D01*
X108397306Y-49750463D01*
X108300615Y-49829815D01*
X108221263Y-49926506D01*
X108162298Y-50036820D01*
X108125988Y-50156518D01*
X108113728Y-50281000D01*
X107970628Y-50281000D01*
X108676221Y-48746508D01*
X109307550Y-48009959D01*
X112978151Y-47253424D01*
X114135447Y-47050037D01*
X118855477Y-47270382D01*
X119646862Y-47688557D01*
X121356691Y-48669195D01*
X121365382Y-48674980D01*
X121384780Y-48685305D01*
X121403864Y-48696250D01*
X121413398Y-48700537D01*
X122032450Y-49030033D01*
X122420085Y-49620297D01*
X122592956Y-50733154D01*
X122592844Y-50743639D01*
X122602913Y-50797253D01*
X122606298Y-50819043D01*
X122608905Y-50829154D01*
X122616841Y-50871413D01*
X122625092Y-50891952D01*
X122630619Y-50913392D01*
X122649275Y-50952147D01*
X122653162Y-50961823D01*
X122663334Y-50981354D01*
X122687009Y-51030535D01*
X122693316Y-51038918D01*
X122958720Y-51548495D01*
X122960735Y-51554916D01*
X122988718Y-51606091D01*
X123000613Y-51628929D01*
X123004267Y-51634527D01*
X123023109Y-51668984D01*
X123039724Y-51688841D01*
X123053874Y-51710516D01*
X123081340Y-51738576D01*
X123085635Y-51743709D01*
X123104033Y-51761760D01*
X123144815Y-51803424D01*
X123150369Y-51807221D01*
X123384387Y-52036824D01*
X123638536Y-52341803D01*
X123656272Y-52359275D01*
X123682726Y-52375740D01*
X123771929Y-52417055D01*
X123775003Y-52420071D01*
X123813311Y-52459927D01*
X123847976Y-52484095D01*
X123880918Y-52510609D01*
X123901202Y-52521204D01*
X123919959Y-52534281D01*
X123958679Y-52551225D01*
X123996154Y-52570799D01*
X124018105Y-52577230D01*
X124039062Y-52586401D01*
X124080351Y-52595467D01*
X124120917Y-52607352D01*
X124176003Y-52612248D01*
X124199340Y-52615014D01*
X124889226Y-52934540D01*
X124912734Y-52942738D01*
X124930559Y-52945728D01*
X125997359Y-53047328D01*
X126022255Y-53047248D01*
X126039890Y-53044186D01*
X127220990Y-52752086D01*
X127244456Y-52743768D01*
X127260947Y-52734470D01*
X127334330Y-52685548D01*
X127813788Y-52637942D01*
X127877318Y-52631819D01*
X127909429Y-52622152D01*
X127942317Y-52615583D01*
X127971521Y-52603459D01*
X128001808Y-52594341D01*
X128031426Y-52578589D01*
X128062389Y-52565735D01*
X128115415Y-52530244D01*
X128272738Y-52425600D01*
X133537428Y-52425600D01*
X133537428Y-54457600D01*
X133549688Y-54582082D01*
X133585998Y-54701780D01*
X133644963Y-54812094D01*
X133724315Y-54908785D01*
X133821006Y-54988137D01*
X133931320Y-55047102D01*
X134051018Y-55083412D01*
X134175500Y-55095672D01*
X135902700Y-55095672D01*
X136027182Y-55083412D01*
X136146880Y-55047102D01*
X136257194Y-54988137D01*
X136353885Y-54908785D01*
X136433237Y-54812094D01*
X136492202Y-54701780D01*
X136507686Y-54650735D01*
X136514303Y-54658797D01*
X136742494Y-54846069D01*
X137002836Y-54985225D01*
X137285323Y-55070916D01*
X137579100Y-55099851D01*
X137872876Y-55070916D01*
X138155363Y-54985225D01*
X138415705Y-54846069D01*
X138643897Y-54658797D01*
X138831169Y-54430606D01*
X138849100Y-54397059D01*
X138867031Y-54430605D01*
X139054303Y-54658797D01*
X139282494Y-54846069D01*
X139542836Y-54985225D01*
X139825323Y-55070916D01*
X140119100Y-55099851D01*
X140412876Y-55070916D01*
X140695363Y-54985225D01*
X140955705Y-54846069D01*
X141183897Y-54658797D01*
X141371169Y-54430606D01*
X141510325Y-54170264D01*
X141596016Y-53887777D01*
X141617700Y-53667619D01*
X141617700Y-53215582D01*
X141596016Y-52995424D01*
X141510325Y-52712937D01*
X141371169Y-52452594D01*
X141183897Y-52224403D01*
X140955706Y-52037131D01*
X140695364Y-51897975D01*
X140412877Y-51812284D01*
X140119100Y-51783349D01*
X139825324Y-51812284D01*
X139542837Y-51897975D01*
X139282495Y-52037131D01*
X139054303Y-52224403D01*
X138867031Y-52452594D01*
X138849100Y-52486141D01*
X138831169Y-52452594D01*
X138643897Y-52224403D01*
X138415706Y-52037131D01*
X138155364Y-51897975D01*
X137872877Y-51812284D01*
X137579100Y-51783349D01*
X137285324Y-51812284D01*
X137002837Y-51897975D01*
X136742495Y-52037131D01*
X136514303Y-52224403D01*
X136507686Y-52232465D01*
X136492202Y-52181420D01*
X136433237Y-52071106D01*
X136353885Y-51974415D01*
X136257194Y-51895063D01*
X136146880Y-51836098D01*
X136027182Y-51799788D01*
X135902700Y-51787528D01*
X134175500Y-51787528D01*
X134051018Y-51799788D01*
X133931320Y-51836098D01*
X133821006Y-51895063D01*
X133724315Y-51974415D01*
X133644963Y-52071106D01*
X133585998Y-52181420D01*
X133549688Y-52301118D01*
X133537428Y-52425600D01*
X128272738Y-52425600D01*
X136340947Y-47059020D01*
X146019185Y-46728244D01*
X146183887Y-46810595D01*
X145922023Y-47097639D01*
X144567074Y-47309349D01*
X144543964Y-47310003D01*
X144503017Y-47319358D01*
X144493681Y-47320817D01*
X144471396Y-47326583D01*
X144417222Y-47338960D01*
X144408550Y-47342843D01*
X144399354Y-47345222D01*
X144349304Y-47369370D01*
X144328295Y-47378776D01*
X144320094Y-47383462D01*
X144282262Y-47401715D01*
X144263798Y-47415632D01*
X141682357Y-48890740D01*
X141674536Y-48893576D01*
X141626013Y-48922937D01*
X141605001Y-48934944D01*
X141598249Y-48939737D01*
X141563306Y-48960881D01*
X141545370Y-48977275D01*
X141525551Y-48991344D01*
X141497493Y-49021035D01*
X141467343Y-49048593D01*
X141452948Y-49068173D01*
X141436257Y-49085836D01*
X141414534Y-49120425D01*
X141390335Y-49153341D01*
X141380036Y-49175354D01*
X141367113Y-49195932D01*
X141352553Y-49234101D01*
X141335244Y-49271099D01*
X141329439Y-49294694D01*
X141320776Y-49317403D01*
X141313942Y-49357678D01*
X141304183Y-49397343D01*
X141303093Y-49421620D01*
X141299027Y-49445580D01*
X141300182Y-49486415D01*
X141299811Y-49494677D01*
X141301099Y-49518824D01*
X141302703Y-49575535D01*
X141304556Y-49583645D01*
X141402521Y-51420485D01*
X141403493Y-51473902D01*
X141412899Y-51517069D01*
X141419564Y-51560740D01*
X141426709Y-51580447D01*
X141431172Y-51600930D01*
X141448820Y-51641435D01*
X141463876Y-51682963D01*
X141491521Y-51728651D01*
X141798300Y-52278297D01*
X142032186Y-52901993D01*
X142043171Y-52924335D01*
X142053846Y-52939074D01*
X142391537Y-53341180D01*
X142990334Y-54414025D01*
X142999727Y-54437033D01*
X143021927Y-54470629D01*
X143025689Y-54477369D01*
X143039816Y-54497700D01*
X143071401Y-54545499D01*
X143076859Y-54551013D01*
X143081285Y-54557383D01*
X143122545Y-54597168D01*
X143139944Y-54614746D01*
X143145875Y-54619664D01*
X143174872Y-54647625D01*
X143195794Y-54661060D01*
X144197804Y-55491996D01*
X144250946Y-55555274D01*
X144274242Y-55576843D01*
X144464285Y-55712980D01*
X146031157Y-57012337D01*
X144584739Y-56301387D01*
X144574430Y-56294101D01*
X144526506Y-56272763D01*
X144508644Y-56263984D01*
X144496890Y-56259578D01*
X144455661Y-56241221D01*
X144436144Y-56236805D01*
X144417411Y-56229782D01*
X144372881Y-56222490D01*
X144360631Y-56219718D01*
X144340870Y-56217248D01*
X144289111Y-56208772D01*
X144276498Y-56209201D01*
X142929728Y-56040855D01*
X142889386Y-56032819D01*
X142832940Y-56032803D01*
X142776495Y-56031325D01*
X142735951Y-56038292D01*
X141378316Y-56171632D01*
X141354549Y-56170993D01*
X141313771Y-56177971D01*
X141305026Y-56178830D01*
X141281839Y-56183435D01*
X141226403Y-56192922D01*
X141218138Y-56196088D01*
X141209459Y-56197812D01*
X141157502Y-56219317D01*
X141104998Y-56239430D01*
X141097511Y-56244146D01*
X141089334Y-56247531D01*
X141042584Y-56278749D01*
X140994998Y-56308728D01*
X140988572Y-56314818D01*
X140981216Y-56319730D01*
X140941463Y-56359461D01*
X140924277Y-56375748D01*
X140918512Y-56382400D01*
X140889261Y-56411635D01*
X140876050Y-56431394D01*
X140283309Y-57115327D01*
X140281027Y-57117132D01*
X140240773Y-57164407D01*
X140221414Y-57186745D01*
X140219743Y-57189106D01*
X140196743Y-57216118D01*
X140182276Y-57242043D01*
X140165126Y-57266274D01*
X140150675Y-57298671D01*
X140133390Y-57329646D01*
X140124260Y-57357892D01*
X140112165Y-57385007D01*
X140104311Y-57419606D01*
X140103422Y-57422356D01*
X140097144Y-57451178D01*
X140083385Y-57511789D01*
X140083307Y-57514703D01*
X139817678Y-58734178D01*
X139803933Y-58794910D01*
X139803008Y-58830155D01*
X139798916Y-58865183D01*
X139801307Y-58894987D01*
X139800523Y-58924872D01*
X139806493Y-58959625D01*
X139809313Y-58994774D01*
X139826303Y-59054669D01*
X140966427Y-63201718D01*
X140967297Y-63210515D01*
X140983625Y-63264271D01*
X140989906Y-63287118D01*
X140993062Y-63295340D01*
X140995614Y-63303743D01*
X141004662Y-63325565D01*
X141024818Y-63378081D01*
X141029541Y-63385568D01*
X141851145Y-65367083D01*
X141853784Y-65378289D01*
X141875996Y-65427019D01*
X141884047Y-65446436D01*
X141889452Y-65456540D01*
X141894196Y-65466947D01*
X141904728Y-65485094D01*
X141930007Y-65532348D01*
X141937319Y-65541251D01*
X142696506Y-66849391D01*
X143016064Y-67925235D01*
X141407138Y-65341760D01*
X141377785Y-65292189D01*
X141351092Y-65262420D01*
X141326734Y-65230720D01*
X141307800Y-65214138D01*
X141290993Y-65195394D01*
X141258999Y-65171399D01*
X141228931Y-65145066D01*
X141179092Y-65116336D01*
X139302514Y-63977880D01*
X139270844Y-63955081D01*
X139217594Y-63930814D01*
X139164757Y-63905478D01*
X139126938Y-63895790D01*
X137700722Y-63408194D01*
X137675518Y-63396274D01*
X137639374Y-63387220D01*
X137634932Y-63385702D01*
X137607908Y-63379339D01*
X137549405Y-63364685D01*
X137544689Y-63364453D01*
X137540092Y-63363371D01*
X137479797Y-63361266D01*
X137419554Y-63358307D01*
X137414884Y-63359000D01*
X137410164Y-63358835D01*
X137350632Y-63368531D01*
X137290952Y-63377384D01*
X137286504Y-63378975D01*
X137281847Y-63379734D01*
X137225378Y-63400848D01*
X137199215Y-63410209D01*
X137194969Y-63412217D01*
X137160072Y-63425265D01*
X137136366Y-63439935D01*
X136253286Y-63857608D01*
X136216500Y-63871629D01*
X136167151Y-63902602D01*
X136117233Y-63932522D01*
X136112174Y-63937108D01*
X136106383Y-63940742D01*
X136064034Y-63980740D01*
X136020904Y-64019831D01*
X136016834Y-64025319D01*
X136011867Y-64030010D01*
X135978147Y-64077483D01*
X135943459Y-64124255D01*
X135940538Y-64130431D01*
X135936581Y-64136002D01*
X135912765Y-64189153D01*
X135887874Y-64241782D01*
X135886214Y-64248408D01*
X135883420Y-64254644D01*
X135870431Y-64311420D01*
X135856285Y-64367895D01*
X135854354Y-64407207D01*
X135438901Y-67667881D01*
X134481792Y-74657313D01*
X134479270Y-74665256D01*
X134472982Y-74721649D01*
X134469705Y-74745577D01*
X134469391Y-74753847D01*
X134464862Y-74794464D01*
X134466932Y-74818669D01*
X134466011Y-74842939D01*
X134472458Y-74883286D01*
X134475939Y-74923999D01*
X134482691Y-74947333D01*
X134486523Y-74971319D01*
X134500718Y-75009636D01*
X134512074Y-75048884D01*
X134523246Y-75070449D01*
X134531686Y-75093231D01*
X134553085Y-75128044D01*
X134556894Y-75135397D01*
X134570064Y-75155667D01*
X134599766Y-75203989D01*
X134605429Y-75210098D01*
X136022915Y-77391796D01*
X136043702Y-77429079D01*
X136079256Y-77470866D01*
X136113554Y-77513773D01*
X136146221Y-77541293D01*
X138269097Y-79590117D01*
X138270133Y-79591592D01*
X138315730Y-79635123D01*
X138337893Y-79656513D01*
X138339308Y-79657633D01*
X138340607Y-79658873D01*
X138364719Y-79677744D01*
X138414295Y-79716978D01*
X138415906Y-79717803D01*
X138823944Y-80037137D01*
X138946469Y-81017341D01*
X138787035Y-82432320D01*
X138622232Y-82538958D01*
X137709264Y-83108221D01*
X128097296Y-83058418D01*
X92260258Y-82682373D01*
X92209042Y-82528724D01*
X92331952Y-80752107D01*
X92825369Y-79607801D01*
X93828840Y-78726978D01*
X96171493Y-77094599D01*
X96211564Y-77069782D01*
X96248436Y-77035374D01*
X96286818Y-77002600D01*
X96295900Y-76991082D01*
X96306615Y-76981083D01*
X96336074Y-76940131D01*
X96367315Y-76900510D01*
X96388723Y-76858505D01*
X97721514Y-74559747D01*
X103186258Y-74559747D01*
X103330235Y-74865070D01*
X103687992Y-75045897D01*
X104074153Y-75153455D01*
X104473877Y-75183610D01*
X104871804Y-75135204D01*
X105252640Y-75010095D01*
X105523965Y-74865070D01*
X105667942Y-74559747D01*
X124786258Y-74559747D01*
X124930235Y-74865070D01*
X125287992Y-75045897D01*
X125674153Y-75153455D01*
X126073877Y-75183610D01*
X126471804Y-75135204D01*
X126852640Y-75010095D01*
X127123965Y-74865070D01*
X127267942Y-74559747D01*
X126027100Y-73318905D01*
X124786258Y-74559747D01*
X105667942Y-74559747D01*
X104427100Y-73318905D01*
X103186258Y-74559747D01*
X97721514Y-74559747D01*
X97752937Y-74505550D01*
X98154148Y-73909813D01*
X98186318Y-73864984D01*
X98203849Y-73826361D01*
X98223980Y-73789027D01*
X98230659Y-73767296D01*
X98240053Y-73746599D01*
X98249712Y-73705299D01*
X98262173Y-73664755D01*
X98264483Y-73642145D01*
X98269661Y-73620007D01*
X98271077Y-73577612D01*
X98275388Y-73535421D01*
X98273242Y-73512788D01*
X98274001Y-73490071D01*
X98267120Y-73448217D01*
X98263117Y-73405992D01*
X98256599Y-73384220D01*
X98252911Y-73361785D01*
X98237994Y-73322072D01*
X98225832Y-73281445D01*
X98200005Y-73232699D01*
X98177053Y-73186077D01*
X102382790Y-73186077D01*
X102431196Y-73584004D01*
X102556305Y-73964840D01*
X102701330Y-74236165D01*
X103006653Y-74380142D01*
X104247495Y-73139300D01*
X104606705Y-73139300D01*
X105847547Y-74380142D01*
X106152870Y-74236165D01*
X106333697Y-73878408D01*
X106441255Y-73492247D01*
X106464352Y-73186077D01*
X123982790Y-73186077D01*
X124031196Y-73584004D01*
X124156305Y-73964840D01*
X124301330Y-74236165D01*
X124606653Y-74380142D01*
X125847495Y-73139300D01*
X126206705Y-73139300D01*
X127447547Y-74380142D01*
X127752870Y-74236165D01*
X127933697Y-73878408D01*
X128041255Y-73492247D01*
X128071410Y-73092523D01*
X128023004Y-72694596D01*
X127897895Y-72313760D01*
X127752870Y-72042435D01*
X127447547Y-71898458D01*
X126206705Y-73139300D01*
X125847495Y-73139300D01*
X124606653Y-71898458D01*
X124301330Y-72042435D01*
X124120503Y-72400192D01*
X124012945Y-72786353D01*
X123982790Y-73186077D01*
X106464352Y-73186077D01*
X106471410Y-73092523D01*
X106423004Y-72694596D01*
X106297895Y-72313760D01*
X106152870Y-72042435D01*
X105847547Y-71898458D01*
X104606705Y-73139300D01*
X104247495Y-73139300D01*
X103006653Y-71898458D01*
X102701330Y-72042435D01*
X102520503Y-72400192D01*
X102412945Y-72786353D01*
X102382790Y-73186077D01*
X98177053Y-73186077D01*
X97454727Y-71718853D01*
X103186258Y-71718853D01*
X104427100Y-72959695D01*
X105667942Y-71718853D01*
X124786258Y-71718853D01*
X126027100Y-72959695D01*
X127267942Y-71718853D01*
X127123965Y-71413530D01*
X126766208Y-71232703D01*
X126380047Y-71125145D01*
X125980323Y-71094990D01*
X125582396Y-71143396D01*
X125201560Y-71268505D01*
X124930235Y-71413530D01*
X124786258Y-71718853D01*
X105667942Y-71718853D01*
X105523965Y-71413530D01*
X105166208Y-71232703D01*
X104780047Y-71125145D01*
X104380323Y-71094990D01*
X103982396Y-71143396D01*
X103601560Y-71268505D01*
X103330235Y-71413530D01*
X103186258Y-71718853D01*
X97454727Y-71718853D01*
X97392109Y-71591661D01*
X97378367Y-71563491D01*
X97377736Y-71562467D01*
X97377213Y-71561404D01*
X97360893Y-71535119D01*
X96254289Y-69738376D01*
X96047502Y-68164507D01*
X95988005Y-66998360D01*
X95989366Y-66985691D01*
X95984698Y-66933550D01*
X95983690Y-66913794D01*
X95981808Y-66901268D01*
X95977773Y-66856200D01*
X95972168Y-66837114D01*
X95969212Y-66817442D01*
X95953889Y-66774872D01*
X95941140Y-66731459D01*
X95931918Y-66713831D01*
X95925182Y-66695117D01*
X95901851Y-66656358D01*
X95880875Y-66616262D01*
X95868391Y-66600772D01*
X95858134Y-66583732D01*
X95827689Y-66550269D01*
X95799294Y-66515036D01*
X95784027Y-66502278D01*
X95770643Y-66487567D01*
X95734259Y-66460689D01*
X95699533Y-66431670D01*
X95682071Y-66422136D01*
X95666073Y-66410318D01*
X95625136Y-66391051D01*
X95585424Y-66369369D01*
X95566441Y-66363426D01*
X95548443Y-66354955D01*
X95504540Y-66344046D01*
X95461354Y-66330525D01*
X95441573Y-66328399D01*
X95422271Y-66323603D01*
X95377075Y-66321468D01*
X95332090Y-66316634D01*
X95312279Y-66318408D01*
X95292408Y-66317469D01*
X95247663Y-66324193D01*
X95202600Y-66328227D01*
X95183514Y-66333832D01*
X95163842Y-66336788D01*
X95121275Y-66352110D01*
X95109114Y-66355681D01*
X95090757Y-66363094D01*
X95041517Y-66380818D01*
X95030604Y-66387387D01*
X94470495Y-66613586D01*
X94461607Y-66615525D01*
X94410282Y-66637903D01*
X94388595Y-66646661D01*
X94380592Y-66650847D01*
X94342433Y-66667485D01*
X94323110Y-66680919D01*
X94302262Y-66691825D01*
X94269861Y-66717938D01*
X94262433Y-66723102D01*
X94244599Y-66738297D01*
X94201036Y-66773406D01*
X94195207Y-66780381D01*
X91754344Y-68860097D01*
X91709825Y-68896289D01*
X91684170Y-68927257D01*
X91656269Y-68956207D01*
X91642799Y-68977194D01*
X91626885Y-68996404D01*
X91607762Y-69031787D01*
X91586047Y-69065620D01*
X91565089Y-69118981D01*
X91513072Y-69242937D01*
X91495811Y-69259541D01*
X91476078Y-69291027D01*
X90980778Y-70421327D01*
X90976218Y-70433358D01*
X90659386Y-71416859D01*
X90586143Y-71154729D01*
X90866255Y-68644926D01*
X91301624Y-68152770D01*
X91335961Y-68117499D01*
X91362273Y-68076951D01*
X91390610Y-68037764D01*
X91397601Y-68022510D01*
X91406731Y-68008440D01*
X91424630Y-67963530D01*
X91444774Y-67919576D01*
X91448653Y-67903256D01*
X91454865Y-67887671D01*
X91463659Y-67840132D01*
X91474840Y-67793093D01*
X91476663Y-67743873D01*
X91752305Y-64498818D01*
X91758508Y-64463020D01*
X91756989Y-64401772D01*
X91756166Y-64340534D01*
X91748600Y-64305001D01*
X91475184Y-62092814D01*
X91472406Y-62048048D01*
X91458935Y-61997063D01*
X91447367Y-61945609D01*
X91442355Y-61934311D01*
X91439196Y-61922353D01*
X91416024Y-61874950D01*
X91394652Y-61826768D01*
X91368823Y-61790113D01*
X89548625Y-58840138D01*
X89527625Y-58800850D01*
X89493960Y-58759829D01*
X89461816Y-58717635D01*
X89452790Y-58709664D01*
X89445148Y-58700352D01*
X89404121Y-58666682D01*
X89364369Y-58631575D01*
X89353966Y-58625520D01*
X89344650Y-58617875D01*
X89297841Y-58592855D01*
X89252006Y-58566179D01*
X89240618Y-58562269D01*
X89229993Y-58556590D01*
X89179200Y-58541182D01*
X89129043Y-58523961D01*
X89117115Y-58522348D01*
X89105583Y-58518850D01*
X89052762Y-58513648D01*
X89000206Y-58506542D01*
X88955761Y-58509300D01*
X86907373Y-58509300D01*
X86844184Y-58509004D01*
X86810686Y-58515504D01*
X86776717Y-58518850D01*
X86716037Y-58537257D01*
X86034068Y-58740652D01*
X86011622Y-58744319D01*
X85971911Y-58759190D01*
X85962502Y-58761996D01*
X85941575Y-58770550D01*
X85920377Y-58778488D01*
X85911552Y-58782822D01*
X85872312Y-58798861D01*
X85853350Y-58811403D01*
X83721490Y-59858299D01*
X86721912Y-57529614D01*
X86744949Y-57515653D01*
X86773117Y-57489873D01*
X86777572Y-57486415D01*
X86797092Y-57467929D01*
X86840854Y-57427877D01*
X86844201Y-57423318D01*
X86848317Y-57419420D01*
X86882673Y-57370913D01*
X86898513Y-57349337D01*
X86901377Y-57344506D01*
X86923460Y-57313327D01*
X86934448Y-57288717D01*
X88348158Y-54903851D01*
X88355401Y-54895208D01*
X88381230Y-54848060D01*
X88392076Y-54829763D01*
X88396830Y-54819583D01*
X88417864Y-54781188D01*
X88424270Y-54760829D01*
X88433305Y-54741482D01*
X88443740Y-54698944D01*
X88447106Y-54688247D01*
X88451462Y-54667468D01*
X88464280Y-54615218D01*
X88464779Y-54603945D01*
X89554629Y-49405235D01*
X89566561Y-49361462D01*
X89570203Y-49309355D01*
X89575858Y-49257428D01*
X89574728Y-49244604D01*
X89575625Y-49231770D01*
X89569032Y-49179959D01*
X89564447Y-49127921D01*
X89560839Y-49115569D01*
X89559214Y-49102802D01*
X89542636Y-49053259D01*
X89527991Y-49003130D01*
X89522043Y-48991722D01*
X89517958Y-48979513D01*
X89492028Y-48934148D01*
X89467889Y-48887847D01*
X89439483Y-48852498D01*
X87936033Y-46735142D01*
X87909546Y-46693758D01*
X87875940Y-46658801D01*
X87844144Y-46622226D01*
X87830982Y-46612036D01*
X87819445Y-46600035D01*
X87779663Y-46572304D01*
X87741344Y-46542637D01*
X87726455Y-46535214D01*
X87712792Y-46525690D01*
X87668360Y-46506251D01*
X87624994Y-46484631D01*
X87577631Y-46471721D01*
X85529266Y-45806003D01*
X85532975Y-45718234D01*
X87918582Y-46084397D01*
%TA.AperFunction,Conductor*%
D17*
G36*
X87918582Y-46084397D02*
G01*
X94299898Y-48219779D01*
X101608323Y-53413266D01*
X101630861Y-53433175D01*
X101661178Y-53450825D01*
X101663217Y-53452274D01*
X101689197Y-53467137D01*
X101743216Y-53498586D01*
X101745598Y-53499404D01*
X101747788Y-53500657D01*
X101807077Y-53520521D01*
X101866173Y-53540819D01*
X101868672Y-53541157D01*
X101871062Y-53541958D01*
X101933034Y-53549868D01*
X101995007Y-53558255D01*
X101997525Y-53558099D01*
X102000024Y-53558418D01*
X102062266Y-53554091D01*
X102092253Y-53552234D01*
X102094737Y-53551833D01*
X102129719Y-53549401D01*
X102158724Y-53541506D01*
X105551770Y-52993895D01*
X105553919Y-52993598D01*
X105554142Y-52993512D01*
X106096943Y-52905908D01*
X106120865Y-52905052D01*
X106160936Y-52895580D01*
X106169463Y-52894204D01*
X106192535Y-52888111D01*
X106247388Y-52875145D01*
X106255277Y-52871541D01*
X106263666Y-52869326D01*
X106314353Y-52844557D01*
X106365643Y-52821129D01*
X106372677Y-52816056D01*
X106380474Y-52812246D01*
X106425366Y-52778056D01*
X106471089Y-52745081D01*
X106476996Y-52738736D01*
X106483902Y-52733476D01*
X106521266Y-52691179D01*
X106537477Y-52673765D01*
X106542697Y-52666919D01*
X106569975Y-52636040D01*
X106582026Y-52615340D01*
X106989460Y-52081000D01*
X108113728Y-52081000D01*
X108125988Y-52205482D01*
X108162298Y-52325180D01*
X108221263Y-52435494D01*
X108300615Y-52532185D01*
X108397306Y-52611537D01*
X108507620Y-52670502D01*
X108627318Y-52706812D01*
X108751800Y-52719072D01*
X109366050Y-52716000D01*
X109524800Y-52557250D01*
X109524800Y-51308000D01*
X108275550Y-51308000D01*
X108116800Y-51466750D01*
X108113728Y-52081000D01*
X106989460Y-52081000D01*
X107317016Y-51651419D01*
X107343915Y-51621090D01*
X107372696Y-51571874D01*
X107402690Y-51523311D01*
X107416860Y-51485311D01*
X107970628Y-50281000D01*
X108113728Y-50281000D01*
X108116800Y-50895250D01*
X108275550Y-51054000D01*
X109524800Y-51054000D01*
X109524800Y-49804750D01*
X109778800Y-49804750D01*
X109778800Y-51054000D01*
X109798800Y-51054000D01*
X109798800Y-51308000D01*
X109778800Y-51308000D01*
X109778800Y-52557250D01*
X109937550Y-52716000D01*
X110551800Y-52719072D01*
X110676282Y-52706812D01*
X110795980Y-52670502D01*
X110906294Y-52611537D01*
X111002985Y-52532185D01*
X111082337Y-52435494D01*
X111141302Y-52325180D01*
X111146856Y-52306873D01*
X111213295Y-52373312D01*
X111464705Y-52541299D01*
X111744057Y-52657011D01*
X112040616Y-52716000D01*
X112342984Y-52716000D01*
X112639543Y-52657011D01*
X112918895Y-52541299D01*
X113170305Y-52373312D01*
X113384112Y-52159505D01*
X113552099Y-51908095D01*
X113611992Y-51763500D01*
X116660828Y-51763500D01*
X116673088Y-51887982D01*
X116709398Y-52007680D01*
X116768363Y-52117994D01*
X116847715Y-52214685D01*
X116944406Y-52294037D01*
X117054720Y-52353002D01*
X117174418Y-52389312D01*
X117298900Y-52401572D01*
X117913150Y-52398500D01*
X118071900Y-52239750D01*
X118071900Y-50990500D01*
X116822650Y-50990500D01*
X116663900Y-51149250D01*
X116660828Y-51763500D01*
X113611992Y-51763500D01*
X113667811Y-51628743D01*
X113726800Y-51332184D01*
X113726800Y-51029816D01*
X113667811Y-50733257D01*
X113552099Y-50453905D01*
X113384112Y-50202495D01*
X113170305Y-49988688D01*
X113132609Y-49963500D01*
X116660828Y-49963500D01*
X116663900Y-50577750D01*
X116822650Y-50736500D01*
X118071900Y-50736500D01*
X118071900Y-49487250D01*
X118325900Y-49487250D01*
X118325900Y-50736500D01*
X118345900Y-50736500D01*
X118345900Y-50990500D01*
X118325900Y-50990500D01*
X118325900Y-52239750D01*
X118484650Y-52398500D01*
X119098900Y-52401572D01*
X119223382Y-52389312D01*
X119343080Y-52353002D01*
X119453394Y-52294037D01*
X119550085Y-52214685D01*
X119629437Y-52117994D01*
X119688402Y-52007680D01*
X119693956Y-51989373D01*
X119760395Y-52055812D01*
X120011805Y-52223799D01*
X120291157Y-52339511D01*
X120587716Y-52398500D01*
X120890084Y-52398500D01*
X121186643Y-52339511D01*
X121465995Y-52223799D01*
X121717405Y-52055812D01*
X121931212Y-51842005D01*
X122099199Y-51590595D01*
X122214911Y-51311243D01*
X122273900Y-51014684D01*
X122273900Y-50712316D01*
X122214911Y-50415757D01*
X122099199Y-50136405D01*
X121931212Y-49884995D01*
X121717405Y-49671188D01*
X121465995Y-49503201D01*
X121186643Y-49387489D01*
X120890084Y-49328500D01*
X120587716Y-49328500D01*
X120291157Y-49387489D01*
X120011805Y-49503201D01*
X119760395Y-49671188D01*
X119693956Y-49737627D01*
X119688402Y-49719320D01*
X119629437Y-49609006D01*
X119550085Y-49512315D01*
X119453394Y-49432963D01*
X119343080Y-49373998D01*
X119223382Y-49337688D01*
X119098900Y-49325428D01*
X118484650Y-49328500D01*
X118325900Y-49487250D01*
X118071900Y-49487250D01*
X117913150Y-49328500D01*
X117298900Y-49325428D01*
X117174418Y-49337688D01*
X117054720Y-49373998D01*
X116944406Y-49432963D01*
X116847715Y-49512315D01*
X116768363Y-49609006D01*
X116709398Y-49719320D01*
X116673088Y-49839018D01*
X116660828Y-49963500D01*
X113132609Y-49963500D01*
X112918895Y-49820701D01*
X112639543Y-49704989D01*
X112342984Y-49646000D01*
X112040616Y-49646000D01*
X111744057Y-49704989D01*
X111464705Y-49820701D01*
X111213295Y-49988688D01*
X111146856Y-50055127D01*
X111141302Y-50036820D01*
X111082337Y-49926506D01*
X111002985Y-49829815D01*
X110906294Y-49750463D01*
X110795980Y-49691498D01*
X110676282Y-49655188D01*
X110551800Y-49642928D01*
X109937550Y-49646000D01*
X109778800Y-49804750D01*
X109524800Y-49804750D01*
X109366050Y-49646000D01*
X108751800Y-49642928D01*
X108627318Y-49655188D01*
X108507620Y-49691498D01*
X108397306Y-49750463D01*
X108300615Y-49829815D01*
X108221263Y-49926506D01*
X108162298Y-50036820D01*
X108125988Y-50156518D01*
X108113728Y-50281000D01*
X107970628Y-50281000D01*
X108676221Y-48746508D01*
X109307550Y-48009959D01*
X112978151Y-47253424D01*
X114135447Y-47050037D01*
X118855477Y-47270382D01*
X119646862Y-47688557D01*
X121356691Y-48669195D01*
X121365382Y-48674980D01*
X121384780Y-48685305D01*
X121403864Y-48696250D01*
X121413398Y-48700537D01*
X122032450Y-49030033D01*
X122420085Y-49620297D01*
X122592956Y-50733154D01*
X122592844Y-50743639D01*
X122602913Y-50797253D01*
X122606298Y-50819043D01*
X122608905Y-50829154D01*
X122616841Y-50871413D01*
X122625092Y-50891952D01*
X122630619Y-50913392D01*
X122649275Y-50952147D01*
X122653162Y-50961823D01*
X122663334Y-50981354D01*
X122687009Y-51030535D01*
X122693316Y-51038918D01*
X122958720Y-51548495D01*
X122960735Y-51554916D01*
X122988718Y-51606091D01*
X123000613Y-51628929D01*
X123004267Y-51634527D01*
X123023109Y-51668984D01*
X123039724Y-51688841D01*
X123053874Y-51710516D01*
X123081340Y-51738576D01*
X123085635Y-51743709D01*
X123104033Y-51761760D01*
X123144815Y-51803424D01*
X123150369Y-51807221D01*
X123384387Y-52036824D01*
X123638536Y-52341803D01*
X123656272Y-52359275D01*
X123682726Y-52375740D01*
X123771929Y-52417055D01*
X123775003Y-52420071D01*
X123813311Y-52459927D01*
X123847976Y-52484095D01*
X123880918Y-52510609D01*
X123901202Y-52521204D01*
X123919959Y-52534281D01*
X123958679Y-52551225D01*
X123996154Y-52570799D01*
X124018105Y-52577230D01*
X124039062Y-52586401D01*
X124080351Y-52595467D01*
X124120917Y-52607352D01*
X124176003Y-52612248D01*
X124199340Y-52615014D01*
X124889226Y-52934540D01*
X124912734Y-52942738D01*
X124930559Y-52945728D01*
X125997359Y-53047328D01*
X126022255Y-53047248D01*
X126039890Y-53044186D01*
X127220990Y-52752086D01*
X127244456Y-52743768D01*
X127260947Y-52734470D01*
X127334330Y-52685548D01*
X127813788Y-52637942D01*
X127877318Y-52631819D01*
X127909429Y-52622152D01*
X127942317Y-52615583D01*
X127971521Y-52603459D01*
X128001808Y-52594341D01*
X128031426Y-52578589D01*
X128062389Y-52565735D01*
X128115415Y-52530244D01*
X128272738Y-52425600D01*
X133537428Y-52425600D01*
X133537428Y-54457600D01*
X133549688Y-54582082D01*
X133585998Y-54701780D01*
X133644963Y-54812094D01*
X133724315Y-54908785D01*
X133821006Y-54988137D01*
X133931320Y-55047102D01*
X134051018Y-55083412D01*
X134175500Y-55095672D01*
X135902700Y-55095672D01*
X136027182Y-55083412D01*
X136146880Y-55047102D01*
X136257194Y-54988137D01*
X136353885Y-54908785D01*
X136433237Y-54812094D01*
X136492202Y-54701780D01*
X136507686Y-54650735D01*
X136514303Y-54658797D01*
X136742494Y-54846069D01*
X137002836Y-54985225D01*
X137285323Y-55070916D01*
X137579100Y-55099851D01*
X137872876Y-55070916D01*
X138155363Y-54985225D01*
X138415705Y-54846069D01*
X138643897Y-54658797D01*
X138831169Y-54430606D01*
X138849100Y-54397059D01*
X138867031Y-54430605D01*
X139054303Y-54658797D01*
X139282494Y-54846069D01*
X139542836Y-54985225D01*
X139825323Y-55070916D01*
X140119100Y-55099851D01*
X140412876Y-55070916D01*
X140695363Y-54985225D01*
X140955705Y-54846069D01*
X141183897Y-54658797D01*
X141371169Y-54430606D01*
X141510325Y-54170264D01*
X141596016Y-53887777D01*
X141617700Y-53667619D01*
X141617700Y-53215582D01*
X141596016Y-52995424D01*
X141510325Y-52712937D01*
X141371169Y-52452594D01*
X141183897Y-52224403D01*
X140955706Y-52037131D01*
X140695364Y-51897975D01*
X140412877Y-51812284D01*
X140119100Y-51783349D01*
X139825324Y-51812284D01*
X139542837Y-51897975D01*
X139282495Y-52037131D01*
X139054303Y-52224403D01*
X138867031Y-52452594D01*
X138849100Y-52486141D01*
X138831169Y-52452594D01*
X138643897Y-52224403D01*
X138415706Y-52037131D01*
X138155364Y-51897975D01*
X137872877Y-51812284D01*
X137579100Y-51783349D01*
X137285324Y-51812284D01*
X137002837Y-51897975D01*
X136742495Y-52037131D01*
X136514303Y-52224403D01*
X136507686Y-52232465D01*
X136492202Y-52181420D01*
X136433237Y-52071106D01*
X136353885Y-51974415D01*
X136257194Y-51895063D01*
X136146880Y-51836098D01*
X136027182Y-51799788D01*
X135902700Y-51787528D01*
X134175500Y-51787528D01*
X134051018Y-51799788D01*
X133931320Y-51836098D01*
X133821006Y-51895063D01*
X133724315Y-51974415D01*
X133644963Y-52071106D01*
X133585998Y-52181420D01*
X133549688Y-52301118D01*
X133537428Y-52425600D01*
X128272738Y-52425600D01*
X136340947Y-47059020D01*
X146019185Y-46728244D01*
X146183887Y-46810595D01*
X145922023Y-47097639D01*
X144567074Y-47309349D01*
X144543964Y-47310003D01*
X144503017Y-47319358D01*
X144493681Y-47320817D01*
X144471396Y-47326583D01*
X144417222Y-47338960D01*
X144408550Y-47342843D01*
X144399354Y-47345222D01*
X144349304Y-47369370D01*
X144328295Y-47378776D01*
X144320094Y-47383462D01*
X144282262Y-47401715D01*
X144263798Y-47415632D01*
X141682357Y-48890740D01*
X141674536Y-48893576D01*
X141626013Y-48922937D01*
X141605001Y-48934944D01*
X141598249Y-48939737D01*
X141563306Y-48960881D01*
X141545370Y-48977275D01*
X141525551Y-48991344D01*
X141497493Y-49021035D01*
X141467343Y-49048593D01*
X141452948Y-49068173D01*
X141436257Y-49085836D01*
X141414534Y-49120425D01*
X141390335Y-49153341D01*
X141380036Y-49175354D01*
X141367113Y-49195932D01*
X141352553Y-49234101D01*
X141335244Y-49271099D01*
X141329439Y-49294694D01*
X141320776Y-49317403D01*
X141313942Y-49357678D01*
X141304183Y-49397343D01*
X141303093Y-49421620D01*
X141299027Y-49445580D01*
X141300182Y-49486415D01*
X141299811Y-49494677D01*
X141301099Y-49518824D01*
X141302703Y-49575535D01*
X141304556Y-49583645D01*
X141402521Y-51420485D01*
X141403493Y-51473902D01*
X141412899Y-51517069D01*
X141419564Y-51560740D01*
X141426709Y-51580447D01*
X141431172Y-51600930D01*
X141448820Y-51641435D01*
X141463876Y-51682963D01*
X141491521Y-51728651D01*
X141798300Y-52278297D01*
X142032186Y-52901993D01*
X142043171Y-52924335D01*
X142053846Y-52939074D01*
X142391537Y-53341180D01*
X142990334Y-54414025D01*
X142999727Y-54437033D01*
X143021927Y-54470629D01*
X143025689Y-54477369D01*
X143039816Y-54497700D01*
X143071401Y-54545499D01*
X143076859Y-54551013D01*
X143081285Y-54557383D01*
X143122545Y-54597168D01*
X143139944Y-54614746D01*
X143145875Y-54619664D01*
X143174872Y-54647625D01*
X143195794Y-54661060D01*
X144197804Y-55491996D01*
X144250946Y-55555274D01*
X144274242Y-55576843D01*
X144464285Y-55712980D01*
X146031157Y-57012337D01*
X144584739Y-56301387D01*
X144574430Y-56294101D01*
X144526506Y-56272763D01*
X144508644Y-56263984D01*
X144496890Y-56259578D01*
X144455661Y-56241221D01*
X144436144Y-56236805D01*
X144417411Y-56229782D01*
X144372881Y-56222490D01*
X144360631Y-56219718D01*
X144340870Y-56217248D01*
X144289111Y-56208772D01*
X144276498Y-56209201D01*
X142929728Y-56040855D01*
X142889386Y-56032819D01*
X142832940Y-56032803D01*
X142776495Y-56031325D01*
X142735951Y-56038292D01*
X141378316Y-56171632D01*
X141354549Y-56170993D01*
X141313771Y-56177971D01*
X141305026Y-56178830D01*
X141281839Y-56183435D01*
X141226403Y-56192922D01*
X141218138Y-56196088D01*
X141209459Y-56197812D01*
X141157502Y-56219317D01*
X141104998Y-56239430D01*
X141097511Y-56244146D01*
X141089334Y-56247531D01*
X141042584Y-56278749D01*
X140994998Y-56308728D01*
X140988572Y-56314818D01*
X140981216Y-56319730D01*
X140941463Y-56359461D01*
X140924277Y-56375748D01*
X140918512Y-56382400D01*
X140889261Y-56411635D01*
X140876050Y-56431394D01*
X140283309Y-57115327D01*
X140281027Y-57117132D01*
X140240773Y-57164407D01*
X140221414Y-57186745D01*
X140219743Y-57189106D01*
X140196743Y-57216118D01*
X140182276Y-57242043D01*
X140165126Y-57266274D01*
X140150675Y-57298671D01*
X140133390Y-57329646D01*
X140124260Y-57357892D01*
X140112165Y-57385007D01*
X140104311Y-57419606D01*
X140103422Y-57422356D01*
X140097144Y-57451178D01*
X140083385Y-57511789D01*
X140083307Y-57514703D01*
X139817678Y-58734178D01*
X139803933Y-58794910D01*
X139803008Y-58830155D01*
X139798916Y-58865183D01*
X139801307Y-58894987D01*
X139800523Y-58924872D01*
X139806493Y-58959625D01*
X139809313Y-58994774D01*
X139826303Y-59054669D01*
X140966427Y-63201718D01*
X140967297Y-63210515D01*
X140983625Y-63264271D01*
X140989906Y-63287118D01*
X140993062Y-63295340D01*
X140995614Y-63303743D01*
X141004662Y-63325565D01*
X141024818Y-63378081D01*
X141029541Y-63385568D01*
X141851145Y-65367083D01*
X141853784Y-65378289D01*
X141875996Y-65427019D01*
X141884047Y-65446436D01*
X141889452Y-65456540D01*
X141894196Y-65466947D01*
X141904728Y-65485094D01*
X141930007Y-65532348D01*
X141937319Y-65541251D01*
X142696506Y-66849391D01*
X143016064Y-67925235D01*
X141407138Y-65341760D01*
X141377785Y-65292189D01*
X141351092Y-65262420D01*
X141326734Y-65230720D01*
X141307800Y-65214138D01*
X141290993Y-65195394D01*
X141258999Y-65171399D01*
X141228931Y-65145066D01*
X141179092Y-65116336D01*
X139302514Y-63977880D01*
X139270844Y-63955081D01*
X139217594Y-63930814D01*
X139164757Y-63905478D01*
X139126938Y-63895790D01*
X137700722Y-63408194D01*
X137675518Y-63396274D01*
X137639374Y-63387220D01*
X137634932Y-63385702D01*
X137607908Y-63379339D01*
X137549405Y-63364685D01*
X137544689Y-63364453D01*
X137540092Y-63363371D01*
X137479797Y-63361266D01*
X137419554Y-63358307D01*
X137414884Y-63359000D01*
X137410164Y-63358835D01*
X137350632Y-63368531D01*
X137290952Y-63377384D01*
X137286504Y-63378975D01*
X137281847Y-63379734D01*
X137225378Y-63400848D01*
X137199215Y-63410209D01*
X137194969Y-63412217D01*
X137160072Y-63425265D01*
X137136366Y-63439935D01*
X136253286Y-63857608D01*
X136216500Y-63871629D01*
X136167151Y-63902602D01*
X136117233Y-63932522D01*
X136112174Y-63937108D01*
X136106383Y-63940742D01*
X136064034Y-63980740D01*
X136020904Y-64019831D01*
X136016834Y-64025319D01*
X136011867Y-64030010D01*
X135978147Y-64077483D01*
X135943459Y-64124255D01*
X135940538Y-64130431D01*
X135936581Y-64136002D01*
X135912765Y-64189153D01*
X135887874Y-64241782D01*
X135886214Y-64248408D01*
X135883420Y-64254644D01*
X135870431Y-64311420D01*
X135856285Y-64367895D01*
X135854354Y-64407207D01*
X135438901Y-67667881D01*
X134481792Y-74657313D01*
X134479270Y-74665256D01*
X134472982Y-74721649D01*
X134469705Y-74745577D01*
X134469391Y-74753847D01*
X134464862Y-74794464D01*
X134466932Y-74818669D01*
X134466011Y-74842939D01*
X134472458Y-74883286D01*
X134475939Y-74923999D01*
X134482691Y-74947333D01*
X134486523Y-74971319D01*
X134500718Y-75009636D01*
X134512074Y-75048884D01*
X134523246Y-75070449D01*
X134531686Y-75093231D01*
X134553085Y-75128044D01*
X134556894Y-75135397D01*
X134570064Y-75155667D01*
X134599766Y-75203989D01*
X134605429Y-75210098D01*
X136022915Y-77391796D01*
X136043702Y-77429079D01*
X136079256Y-77470866D01*
X136113554Y-77513773D01*
X136146221Y-77541293D01*
X138269097Y-79590117D01*
X138270133Y-79591592D01*
X138315730Y-79635123D01*
X138337893Y-79656513D01*
X138339308Y-79657633D01*
X138340607Y-79658873D01*
X138364719Y-79677744D01*
X138414295Y-79716978D01*
X138415906Y-79717803D01*
X138823944Y-80037137D01*
X138946469Y-81017341D01*
X138787035Y-82432320D01*
X138622232Y-82538958D01*
X137709264Y-83108221D01*
X128097296Y-83058418D01*
X92260258Y-82682373D01*
X92209042Y-82528724D01*
X92331952Y-80752107D01*
X92825369Y-79607801D01*
X93828840Y-78726978D01*
X96171493Y-77094599D01*
X96211564Y-77069782D01*
X96248436Y-77035374D01*
X96286818Y-77002600D01*
X96295900Y-76991082D01*
X96306615Y-76981083D01*
X96336074Y-76940131D01*
X96367315Y-76900510D01*
X96388723Y-76858505D01*
X97721514Y-74559747D01*
X103186258Y-74559747D01*
X103330235Y-74865070D01*
X103687992Y-75045897D01*
X104074153Y-75153455D01*
X104473877Y-75183610D01*
X104871804Y-75135204D01*
X105252640Y-75010095D01*
X105523965Y-74865070D01*
X105667942Y-74559747D01*
X124786258Y-74559747D01*
X124930235Y-74865070D01*
X125287992Y-75045897D01*
X125674153Y-75153455D01*
X126073877Y-75183610D01*
X126471804Y-75135204D01*
X126852640Y-75010095D01*
X127123965Y-74865070D01*
X127267942Y-74559747D01*
X126027100Y-73318905D01*
X124786258Y-74559747D01*
X105667942Y-74559747D01*
X104427100Y-73318905D01*
X103186258Y-74559747D01*
X97721514Y-74559747D01*
X97752937Y-74505550D01*
X98154148Y-73909813D01*
X98186318Y-73864984D01*
X98203849Y-73826361D01*
X98223980Y-73789027D01*
X98230659Y-73767296D01*
X98240053Y-73746599D01*
X98249712Y-73705299D01*
X98262173Y-73664755D01*
X98264483Y-73642145D01*
X98269661Y-73620007D01*
X98271077Y-73577612D01*
X98275388Y-73535421D01*
X98273242Y-73512788D01*
X98274001Y-73490071D01*
X98267120Y-73448217D01*
X98263117Y-73405992D01*
X98256599Y-73384220D01*
X98252911Y-73361785D01*
X98237994Y-73322072D01*
X98225832Y-73281445D01*
X98200005Y-73232699D01*
X98177053Y-73186077D01*
X102382790Y-73186077D01*
X102431196Y-73584004D01*
X102556305Y-73964840D01*
X102701330Y-74236165D01*
X103006653Y-74380142D01*
X104247495Y-73139300D01*
X104606705Y-73139300D01*
X105847547Y-74380142D01*
X106152870Y-74236165D01*
X106333697Y-73878408D01*
X106441255Y-73492247D01*
X106464352Y-73186077D01*
X123982790Y-73186077D01*
X124031196Y-73584004D01*
X124156305Y-73964840D01*
X124301330Y-74236165D01*
X124606653Y-74380142D01*
X125847495Y-73139300D01*
X126206705Y-73139300D01*
X127447547Y-74380142D01*
X127752870Y-74236165D01*
X127933697Y-73878408D01*
X128041255Y-73492247D01*
X128071410Y-73092523D01*
X128023004Y-72694596D01*
X127897895Y-72313760D01*
X127752870Y-72042435D01*
X127447547Y-71898458D01*
X126206705Y-73139300D01*
X125847495Y-73139300D01*
X124606653Y-71898458D01*
X124301330Y-72042435D01*
X124120503Y-72400192D01*
X124012945Y-72786353D01*
X123982790Y-73186077D01*
X106464352Y-73186077D01*
X106471410Y-73092523D01*
X106423004Y-72694596D01*
X106297895Y-72313760D01*
X106152870Y-72042435D01*
X105847547Y-71898458D01*
X104606705Y-73139300D01*
X104247495Y-73139300D01*
X103006653Y-71898458D01*
X102701330Y-72042435D01*
X102520503Y-72400192D01*
X102412945Y-72786353D01*
X102382790Y-73186077D01*
X98177053Y-73186077D01*
X97454727Y-71718853D01*
X103186258Y-71718853D01*
X104427100Y-72959695D01*
X105667942Y-71718853D01*
X124786258Y-71718853D01*
X126027100Y-72959695D01*
X127267942Y-71718853D01*
X127123965Y-71413530D01*
X126766208Y-71232703D01*
X126380047Y-71125145D01*
X125980323Y-71094990D01*
X125582396Y-71143396D01*
X125201560Y-71268505D01*
X124930235Y-71413530D01*
X124786258Y-71718853D01*
X105667942Y-71718853D01*
X105523965Y-71413530D01*
X105166208Y-71232703D01*
X104780047Y-71125145D01*
X104380323Y-71094990D01*
X103982396Y-71143396D01*
X103601560Y-71268505D01*
X103330235Y-71413530D01*
X103186258Y-71718853D01*
X97454727Y-71718853D01*
X97392109Y-71591661D01*
X97378367Y-71563491D01*
X97377736Y-71562467D01*
X97377213Y-71561404D01*
X97360893Y-71535119D01*
X96254289Y-69738376D01*
X96047502Y-68164507D01*
X95988005Y-66998360D01*
X95989366Y-66985691D01*
X95984698Y-66933550D01*
X95983690Y-66913794D01*
X95981808Y-66901268D01*
X95977773Y-66856200D01*
X95972168Y-66837114D01*
X95969212Y-66817442D01*
X95953889Y-66774872D01*
X95941140Y-66731459D01*
X95931918Y-66713831D01*
X95925182Y-66695117D01*
X95901851Y-66656358D01*
X95880875Y-66616262D01*
X95868391Y-66600772D01*
X95858134Y-66583732D01*
X95827689Y-66550269D01*
X95799294Y-66515036D01*
X95784027Y-66502278D01*
X95770643Y-66487567D01*
X95734259Y-66460689D01*
X95699533Y-66431670D01*
X95682071Y-66422136D01*
X95666073Y-66410318D01*
X95625136Y-66391051D01*
X95585424Y-66369369D01*
X95566441Y-66363426D01*
X95548443Y-66354955D01*
X95504540Y-66344046D01*
X95461354Y-66330525D01*
X95441573Y-66328399D01*
X95422271Y-66323603D01*
X95377075Y-66321468D01*
X95332090Y-66316634D01*
X95312279Y-66318408D01*
X95292408Y-66317469D01*
X95247663Y-66324193D01*
X95202600Y-66328227D01*
X95183514Y-66333832D01*
X95163842Y-66336788D01*
X95121275Y-66352110D01*
X95109114Y-66355681D01*
X95090757Y-66363094D01*
X95041517Y-66380818D01*
X95030604Y-66387387D01*
X94470495Y-66613586D01*
X94461607Y-66615525D01*
X94410282Y-66637903D01*
X94388595Y-66646661D01*
X94380592Y-66650847D01*
X94342433Y-66667485D01*
X94323110Y-66680919D01*
X94302262Y-66691825D01*
X94269861Y-66717938D01*
X94262433Y-66723102D01*
X94244599Y-66738297D01*
X94201036Y-66773406D01*
X94195207Y-66780381D01*
X91754344Y-68860097D01*
X91709825Y-68896289D01*
X91684170Y-68927257D01*
X91656269Y-68956207D01*
X91642799Y-68977194D01*
X91626885Y-68996404D01*
X91607762Y-69031787D01*
X91586047Y-69065620D01*
X91565089Y-69118981D01*
X91513072Y-69242937D01*
X91495811Y-69259541D01*
X91476078Y-69291027D01*
X90980778Y-70421327D01*
X90976218Y-70433358D01*
X90659386Y-71416859D01*
X90586143Y-71154729D01*
X90866255Y-68644926D01*
X91301624Y-68152770D01*
X91335961Y-68117499D01*
X91362273Y-68076951D01*
X91390610Y-68037764D01*
X91397601Y-68022510D01*
X91406731Y-68008440D01*
X91424630Y-67963530D01*
X91444774Y-67919576D01*
X91448653Y-67903256D01*
X91454865Y-67887671D01*
X91463659Y-67840132D01*
X91474840Y-67793093D01*
X91476663Y-67743873D01*
X91752305Y-64498818D01*
X91758508Y-64463020D01*
X91756989Y-64401772D01*
X91756166Y-64340534D01*
X91748600Y-64305001D01*
X91475184Y-62092814D01*
X91472406Y-62048048D01*
X91458935Y-61997063D01*
X91447367Y-61945609D01*
X91442355Y-61934311D01*
X91439196Y-61922353D01*
X91416024Y-61874950D01*
X91394652Y-61826768D01*
X91368823Y-61790113D01*
X89548625Y-58840138D01*
X89527625Y-58800850D01*
X89493960Y-58759829D01*
X89461816Y-58717635D01*
X89452790Y-58709664D01*
X89445148Y-58700352D01*
X89404121Y-58666682D01*
X89364369Y-58631575D01*
X89353966Y-58625520D01*
X89344650Y-58617875D01*
X89297841Y-58592855D01*
X89252006Y-58566179D01*
X89240618Y-58562269D01*
X89229993Y-58556590D01*
X89179200Y-58541182D01*
X89129043Y-58523961D01*
X89117115Y-58522348D01*
X89105583Y-58518850D01*
X89052762Y-58513648D01*
X89000206Y-58506542D01*
X88955761Y-58509300D01*
X86907373Y-58509300D01*
X86844184Y-58509004D01*
X86810686Y-58515504D01*
X86776717Y-58518850D01*
X86716037Y-58537257D01*
X86034068Y-58740652D01*
X86011622Y-58744319D01*
X85971911Y-58759190D01*
X85962502Y-58761996D01*
X85941575Y-58770550D01*
X85920377Y-58778488D01*
X85911552Y-58782822D01*
X85872312Y-58798861D01*
X85853350Y-58811403D01*
X83721490Y-59858299D01*
X86721912Y-57529614D01*
X86744949Y-57515653D01*
X86773117Y-57489873D01*
X86777572Y-57486415D01*
X86797092Y-57467929D01*
X86840854Y-57427877D01*
X86844201Y-57423318D01*
X86848317Y-57419420D01*
X86882673Y-57370913D01*
X86898513Y-57349337D01*
X86901377Y-57344506D01*
X86923460Y-57313327D01*
X86934448Y-57288717D01*
X88348158Y-54903851D01*
X88355401Y-54895208D01*
X88381230Y-54848060D01*
X88392076Y-54829763D01*
X88396830Y-54819583D01*
X88417864Y-54781188D01*
X88424270Y-54760829D01*
X88433305Y-54741482D01*
X88443740Y-54698944D01*
X88447106Y-54688247D01*
X88451462Y-54667468D01*
X88464280Y-54615218D01*
X88464779Y-54603945D01*
X89554629Y-49405235D01*
X89566561Y-49361462D01*
X89570203Y-49309355D01*
X89575858Y-49257428D01*
X89574728Y-49244604D01*
X89575625Y-49231770D01*
X89569032Y-49179959D01*
X89564447Y-49127921D01*
X89560839Y-49115569D01*
X89559214Y-49102802D01*
X89542636Y-49053259D01*
X89527991Y-49003130D01*
X89522043Y-48991722D01*
X89517958Y-48979513D01*
X89492028Y-48934148D01*
X89467889Y-48887847D01*
X89439483Y-48852498D01*
X87936033Y-46735142D01*
X87909546Y-46693758D01*
X87875940Y-46658801D01*
X87844144Y-46622226D01*
X87830982Y-46612036D01*
X87819445Y-46600035D01*
X87779663Y-46572304D01*
X87741344Y-46542637D01*
X87726455Y-46535214D01*
X87712792Y-46525690D01*
X87668360Y-46506251D01*
X87624994Y-46484631D01*
X87577631Y-46471721D01*
X85529266Y-45806003D01*
X85532975Y-45718234D01*
X87918582Y-46084397D01*
G37*
%TD.AperFunction*%
%TD*%
M02*
